<svg xmlns="http://www.w3.org/2000/svg" width="152.462" height="132.764"><g transform="translate(-185.399 -342.513)"><rect width="148.001" height="128.303" x="187.629" y="344.744" ry="0" style="fill:#fff;fill-opacity:1;stroke:#cfe0fe;stroke-width:4.46121;stroke-linecap:round;stroke-miterlimit:4;stroke-dasharray:none;stroke-opacity:1"/><text xml:space="preserve" x="203.899" y="450.353" style="font-style:normal;font-variant:normal;font-weight:700;font-stretch:normal;line-height:0%;font-family:Cantarell;-inkscape-font-specification:&quot;Cantarell Bold&quot;;text-align:start;letter-spacing:-5px;word-spacing:0;text-anchor:start;fill:#000;fill-opacity:1;stroke:none"><tspan x="203.899" y="450.353" style="font-style:normal;font-variant:normal;font-weight:700;font-stretch:normal;font-size:53.053px;line-height:1.25;font-family:Cantarell;-inkscape-font-specification:&quot;Cantarell Bold&quot;;text-align:start;letter-spacing:-5px;text-anchor:start;fill:#000">libqmi</tspan></text><path d="M-396.34 288.37a42.931 40.406 0 0 1 38.92 5.297 42.931 40.406 0 0 1 18.009 32.9" style="opacity:.5;fill:none;stroke:#6a63ff;stroke-width:6;stroke-linecap:round;stroke-miterlimit:4;stroke-dasharray:none;stroke-opacity:1" transform="translate(614.678 85.61)"/><path d="M-394.326 287.767a42.931 40.406 0 0 1 37.758 6.487 42.931 40.406 0 0 1 17.157 32.314" style="fill:none;stroke:#0007ff;stroke-width:28.7218;stroke-linecap:round;stroke-miterlimit:4;stroke-dasharray:none;stroke-opacity:1" transform="matrix(.24372 0 0 .24372 324.888 332.461)"/><path d="M-396.175 288.316a42.931 40.406 0 0 1 38.825 5.398 42.931 40.406 0 0 1 17.939 32.854" style="opacity:.75;fill:none;stroke:#443bff;stroke-width:11.4406;stroke-linecap:round;stroke-miterlimit:4;stroke-dasharray:none;stroke-opacity:1" transform="matrix(.61186 0 0 .61186 465.811 211.887)"/><path d="M-396.525 288.43a42.931 40.406 0 0 1 39.024 5.183 42.931 40.406 0 0 1 18.09 32.955" style="opacity:.25;fill:none;stroke:#3d3dff;stroke-width:3.62446;stroke-linecap:round;stroke-miterlimit:4;stroke-dasharray:none;stroke-opacity:1" transform="matrix(1.37952 0 0 1.37952 759.703 -39.19)"/></g></svg>